<?xml version="1.0" encoding="UTF-8"?>
<svg version="1.1" xmlns="http://www.w3.org/2000/svg" width="500" height="500">
<path d="M0 0 C165 0 330 0 500 0 C500 165 500 330 500 500 C335 500 170 500 0 500 C0 335 0 170 0 0 Z " fill="#FEFEFE" transform="translate(0,0)"/>
<path d="M0 0 C7.92 0 15.84 0 24 0 C24 8.91 24 17.82 24 27 C26.31 27 28.62 27 31 27 C31 18.09 31 9.18 31 0 C45.85 0 60.7 0 76 0 C76 4.95 76 9.9 76 15 C77.98 15 79.96 15 82 15 C82 10.05 82 5.1 82 0 C96.19 0 110.38 0 125 0 C125.33 3.898125 125.66 7.79625 126 11.8125 C126.10441406 12.99690674 126.20882812 14.18131348 126.31640625 15.40161133 C127.11920383 25.3688848 127 34.88238688 127 45 C143.5 45 160 45 177 45 C177 50.94 177 56.88 177 63 C177.66 63 178.32 63 179 63 C179.05534912 63.80743652 179.11069824 64.61487305 179.16772461 65.44677734 C179.41992036 69.08983819 179.67862626 72.73240786 179.9375 76.375 C180.02451172 77.64601563 180.11152344 78.91703125 180.20117188 80.2265625 C180.28818359 81.43828125 180.37519531 82.65 180.46484375 83.8984375 C180.543396 85.01911621 180.62194824 86.13979492 180.70288086 87.29443359 C180.83780869 89.96470413 180.83780869 89.96470413 182 92 C182.13903154 93.411636 182.22522907 94.82873437 182.28125 96.24609375 C182.33732422 97.50196289 182.33732422 97.50196289 182.39453125 98.78320312 C182.42933594 99.65912109 182.46414062 100.53503906 182.5 101.4375 C182.56896781 103.16552671 182.64172785 104.89340731 182.71875 106.62109375 C182.74904297 107.3886499 182.77933594 108.15620605 182.81054688 108.94702148 C182.93976993 111.19883271 182.93976993 111.19883271 184 114 C184.09610691 116.71926022 184.13933225 119.40664954 184.125 122.125 C184.12886719 122.86621094 184.13273438 123.60742188 184.13671875 124.37109375 C184.1266598 129.8733402 184.1266598 129.8733402 183 131 C180.5588998 131.09769053 178.14612708 131.12996385 175.70457458 131.12025452 C174.93192876 131.12110894 174.15928294 131.12196337 173.36322361 131.12284368 C170.75441446 131.12450082 168.14566854 131.11897331 165.53686523 131.11352539 C163.67467246 131.11324354 161.81247957 131.1134012 159.95028687 131.1139679 C154.87818414 131.11425597 149.80610485 131.10835771 144.7340076 131.10139394 C139.43953999 131.09516197 134.1450719 131.09455673 128.8506012 131.09336853 C118.81728576 131.09025475 108.78398115 131.08204073 98.75067049 131.07201904 C87.33127715 131.06085935 75.91188331 131.05534782 64.49248588 131.05032361 C40.99498457 131.03985815 17.49749289 131.02225781 -6 131 C-6.02473868 127.06731133 -6.04287835 123.13465287 -6.05493164 119.2019043 C-6.06242729 117.20685232 -6.07513345 115.21182214 -6.08789062 113.21679688 C-6.09111328 111.96318359 -6.09433594 110.70957031 -6.09765625 109.41796875 C-6.10289307 108.26063232 -6.10812988 107.1032959 -6.11352539 105.91088867 C-6 103 -6 103 -5 100 C-4.89220594 98.64531052 -4.83433266 97.28625341 -4.81054688 95.92749023 C-4.78547058 94.70623695 -4.78547058 94.70623695 -4.7598877 93.46031189 C-4.74631226 92.5852449 -4.73273682 91.71017792 -4.71875 90.80859375 C-4.70034058 89.9075441 -4.68193115 89.00649445 -4.66296387 88.07814026 C-4.58425619 84.21993919 -4.51645309 80.36156404 -4.44775391 76.50317383 C-4.39608606 73.68822447 -4.33882124 70.87342754 -4.28125 68.05859375 C-4.26767456 67.18150253 -4.25409912 66.30441132 -4.2401123 65.40074158 C-4.11282481 59.22564963 -4.11282481 59.22564963 -3 57 C-2.86651952 54.12650892 -2.78979114 51.2734874 -2.75390625 48.3984375 C-2.72089822 46.60937139 -2.68768804 44.820309 -2.65429688 43.03125 C-2.60742303 40.22561956 -2.56314063 37.41999562 -2.52319336 34.61425781 C-2.34850828 22.91140344 -1.67805649 11.59013914 0 0 Z " fill="#EA433F" transform="translate(15,62)"/>
<path d="M0 0 C0.33 0 0.66 0 1 0 C1 8.58 1 17.16 1 26 C0.34 26 -0.32 26 -1 26 C-0.99777939 26.59389023 -0.99555878 27.18778046 -0.99327087 27.79966736 C-0.97104755 34.01333003 -0.95602262 40.22698129 -0.94506836 46.44067383 C-0.94005765 48.75578266 -0.93324729 51.07088837 -0.92456055 53.38598633 C-0.91235158 56.72478004 -0.90673892 60.06353169 -0.90234375 63.40234375 C-0.89460182 64.94038918 -0.89460182 64.94038918 -0.88670349 66.50950623 C-0.88630359 71.69989977 -1.11577884 76.7319312 -1.76295471 81.88087463 C-2.15590066 85.39371278 -2.21398589 88.90583482 -2.28125 92.4375 C-2.29965942 93.20247803 -2.31806885 93.96745605 -2.33703613 94.75561523 C-2.39505757 97.17034193 -2.44817674 99.58513285 -2.5 102 C-2.56840669 105.18762384 -2.64204346 108.37506622 -2.71875 111.5625 C-2.73232544 112.275271 -2.74590088 112.98804199 -2.7598877 113.72241211 C-2.88531658 118.9070077 -3.42177826 123.79600433 -4 129 C21.08 129 46.16 129 72 129 C72.61761254 124.67671225 73.13478209 120.79313492 73.28125 116.49609375 C73.31863281 115.50802734 73.35601562 114.51996094 73.39453125 113.50195312 C73.46497803 111.45508274 73.53529002 109.40820772 73.60546875 107.36132812 C73.64285156 106.37455078 73.68023437 105.38777344 73.71875 104.37109375 C73.74904297 103.48349365 73.77933594 102.59589355 73.81054688 101.68139648 C74 99 74 99 74.5 96.09082031 C75.03928944 92.75712681 75.19344136 89.55104243 75.28125 86.17578125 C75.31863281 84.90025391 75.35601562 83.62472656 75.39453125 82.31054688 C75.44749935 80.30266342 75.50045706 78.29477945 75.55224609 76.28686523 C75.6040432 74.33306886 75.66131916 72.37942014 75.71875 70.42578125 C75.74904297 69.26473877 75.77933594 68.10369629 75.81054688 66.9074707 C76 64 76 64 77 61 C77.25767308 57.75761373 77.44246808 54.52137679 77.60546875 51.2734375 C77.89840515 46.10159485 77.89840515 46.10159485 79 45 C82.04402422 44.90469019 85.06531708 44.87448361 88.10961914 44.88647461 C89.06561508 44.88632858 90.02161102 44.88618256 91.00657654 44.8860321 C94.18279245 44.88673165 97.35895052 44.89452597 100.53515625 44.90234375 C102.73091093 44.90420778 104.92666602 44.90563175 107.12242126 44.90663147 C112.91420633 44.91045781 118.7059665 44.92028909 124.4977417 44.93133545 C130.40278791 44.94154707 136.30783813 44.94612855 142.21289062 44.95117188 C153.80860648 44.96191126 165.40429728 44.97950899 177 45 C177 50.94 177 56.88 177 63 C177.66 63 178.32 63 179 63 C179.05534912 63.80743652 179.11069824 64.61487305 179.16772461 65.44677734 C179.41992036 69.08983819 179.67862626 72.73240786 179.9375 76.375 C180.02451172 77.64601563 180.11152344 78.91703125 180.20117188 80.2265625 C180.28818359 81.43828125 180.37519531 82.65 180.46484375 83.8984375 C180.543396 85.01911621 180.62194824 86.13979492 180.70288086 87.29443359 C180.83780869 89.96470413 180.83780869 89.96470413 182 92 C182.13903154 93.411636 182.22522907 94.82873437 182.28125 96.24609375 C182.33732422 97.50196289 182.33732422 97.50196289 182.39453125 98.78320312 C182.42933594 99.65912109 182.46414062 100.53503906 182.5 101.4375 C182.56896781 103.16552671 182.64172785 104.89340731 182.71875 106.62109375 C182.74904297 107.3886499 182.77933594 108.15620605 182.81054688 108.94702148 C182.93976993 111.19883271 182.93976993 111.19883271 184 114 C184.09610691 116.71926022 184.13933225 119.40664954 184.125 122.125 C184.12886719 122.86621094 184.13273438 123.60742188 184.13671875 124.37109375 C184.1266598 129.8733402 184.1266598 129.8733402 183 131 C180.5588998 131.09769053 178.14612708 131.12996385 175.70457458 131.12025452 C174.93192876 131.12110894 174.15928294 131.12196337 173.36322361 131.12284368 C170.75441446 131.12450082 168.14566854 131.11897331 165.53686523 131.11352539 C163.67467246 131.11324354 161.81247957 131.1134012 159.95028687 131.1139679 C154.87818414 131.11425597 149.80610485 131.10835771 144.7340076 131.10139394 C139.43953999 131.09516197 134.1450719 131.09455673 128.8506012 131.09336853 C118.81728576 131.09025475 108.78398115 131.08204073 98.75067049 131.07201904 C87.33127715 131.06085935 75.91188331 131.05534782 64.49248588 131.05032361 C40.99498457 131.03985815 17.49749289 131.02225781 -6 131 C-6.02473868 127.06731133 -6.04287835 123.13465287 -6.05493164 119.2019043 C-6.06242729 117.20685232 -6.07513345 115.21182214 -6.08789062 113.21679688 C-6.09111328 111.96318359 -6.09433594 110.70957031 -6.09765625 109.41796875 C-6.10289307 108.26063232 -6.10812988 107.1032959 -6.11352539 105.91088867 C-6 103 -6 103 -5 100 C-4.89220594 98.64531052 -4.83433266 97.28625341 -4.81054688 95.92749023 C-4.78547058 94.70623695 -4.78547058 94.70623695 -4.7598877 93.46031189 C-4.74631226 92.5852449 -4.73273682 91.71017792 -4.71875 90.80859375 C-4.70034058 89.9075441 -4.68193115 89.00649445 -4.66296387 88.07814026 C-4.58425619 84.21993919 -4.51645309 80.36156404 -4.44775391 76.50317383 C-4.39608606 73.68822447 -4.33882124 70.87342754 -4.28125 68.05859375 C-4.26767456 67.18150253 -4.25409912 66.30441132 -4.2401123 65.40074158 C-4.11282481 59.22564963 -4.11282481 59.22564963 -3 57 C-2.86651952 54.12650892 -2.78979114 51.2734874 -2.75390625 48.3984375 C-2.72089822 46.60937139 -2.68768804 44.820309 -2.65429688 43.03125 C-2.60742303 40.22561956 -2.56314063 37.41999562 -2.52319336 34.61425781 C-2.34881942 22.9322481 -1.75713115 11.56153269 0 0 Z " fill="#F2AC30" transform="translate(15,62)"/>
<path d="M0 0 C0 0.66 0 1.32 0 2 C0.66 2 1.32 2 2 2 C2.495 3.98 2.495 3.98 3 6 C3.66 6 4.32 6 5 6 C10.13607828 14.02085189 10.63849388 20.75643736 10.3125 30.125 C10.28994141 31.36765625 10.26738281 32.6103125 10.24414062 33.890625 C10.18573703 36.92761215 10.09607686 39.96397115 10 43 C17.92 43 25.84 43 34 43 C36.25 47.5 36.25 47.5 36.22705078 51.12597656 C36.22689972 51.92650452 36.22674866 52.72703247 36.22659302 53.55181885 C36.21627045 54.40612488 36.20594788 55.26043091 36.1953125 56.140625 C36.1924826 57.02280701 36.18965271 57.90498901 36.18673706 58.81390381 C36.17555961 61.62607499 36.15045951 64.4379254 36.125 67.25 C36.11496705 69.15884956 36.10584175 71.06770412 36.09765625 72.9765625 C36.07562824 77.65116489 36.04111511 82.32552809 36 87 C36.61165512 86.99777939 37.22331024 86.99555878 37.85350037 86.99327087 C44.19570331 86.97121878 50.53789544 86.95609373 56.88012695 86.94506836 C59.24992312 86.94002659 61.61971615 86.93319335 63.98950195 86.92456055 C67.38754039 86.9124881 70.78553785 86.90677029 74.18359375 86.90234375 C75.25024765 86.89718246 76.31690155 86.89202118 77.4158783 86.88670349 C78.88729027 86.88659019 78.88729027 86.88659019 80.38842773 86.88647461 C81.25668686 86.884254 82.12494598 86.88203339 83.01951599 86.87974548 C85 87 85 87 86 88 C88.38179663 98.27475771 88.21157155 108.52720832 88 119 C87.67 119 87.34 119 87 119 C87 115.04 87 111.08 87 107 C86.34 107 85.68 107 85 107 C85 101.06 85 95.12 85 89 C68.5 89 52 89 35 89 C34.505 80.9253125 34.505 80.9253125 34 72.6875 C33.84337891 70.17515747 33.84337891 70.17515747 33.68359375 67.61206055 C33.60130142 66.24529564 33.51925486 64.87851591 33.4375 63.51171875 C33.37272461 62.49495056 33.37272461 62.49495056 33.30664062 61.4576416 C32.96186999 55.60782793 33 49.89421588 33 44 C18.81 44 4.62 44 -10 44 C-10 48.95 -10 53.9 -10 59 C-11.98 59 -13.96 59 -16 59 C-16 54.05 -16 49.1 -16 44 C-30.85 44 -45.7 44 -61 44 C-61 52.91 -61 61.82 -61 71 C-63.31 71 -65.62 71 -68 71 C-68 62.09 -68 53.18 -68 44 C-75.59 44 -83.18 44 -91 44 C-91 43.67 -91 43.34 -91 43 C-83.74 43 -76.48 43 -69 43 C-69.03929996 36.73323093 -69.03929996 36.73323093 -69.09008789 30.46655273 C-69.11869097 21.366159 -68.77719245 12.82534963 -62.0625 6.04296875 C-60.69743123 4.85104289 -59.31188109 3.6819615 -57.90234375 2.54296875 C-56.0083752 1.09874074 -56.0083752 1.09874074 -54.69140625 -0.51171875 C-49.51845159 -5.06344098 -44.03976095 -5.39407782 -37.5 -5.125 C-5.94847923 -4.16547253 -5.94847923 -4.16547253 0 0 Z " fill="#F3F5F6" transform="translate(107,18)"/>
<path d="M0 0 C20.46 0 40.92 0 62 0 C61.31167499 4.12995003 60.55818791 7.87950396 59.4375 11.875 C59.16808594 12.84179688 58.89867187 13.80859375 58.62109375 14.8046875 C58.41613281 15.52914062 58.21117187 16.25359375 58 17 C57.34 17 56.68 17 56 17 C56.03480469 16.15695313 56.06960938 15.31390625 56.10546875 14.4453125 C56.14607422 12.80175781 56.14607422 12.80175781 56.1875 11.125 C56.22230469 10.03445312 56.25710938 8.94390625 56.29296875 7.8203125 C56.14794922 6.42425781 56.14794922 6.42425781 56 5 C52.31912647 2.54608431 49.55644412 2.77197241 45.3125 2.875 C44.61060547 2.88402344 43.90871094 2.89304688 43.18554688 2.90234375 C41.45688475 2.92586296 39.72839855 2.96173287 38 3 C35.1393394 8.11731074 33.71823027 13.23509126 32.3125 18.875 C32.08755859 19.75414062 31.86261719 20.63328125 31.63085938 21.5390625 C31.08111975 23.69123464 30.53768545 25.84479076 30 28 C31.45001084 27.87893077 32.89908085 27.74655559 34.34765625 27.609375 C35.15468994 27.53686523 35.96172363 27.46435547 36.79321289 27.38964844 C39.18909792 27.13086209 39.18909792 27.13086209 41.4375 25.25 C43.06675314 22.90387547 44.09827158 20.70518525 45 18 C45.66 18 46.32 18 47 18 C45.60695059 25.40774509 43.88100377 32.70170537 42 40 C41.34 40 40.68 40 40 40 C40 37.03 40 34.06 40 31 C36.37 30.67 32.74 30.34 29 30 C28.52438711 32.14025799 28.04945928 34.28067069 27.578125 36.421875 C27.20604045 38.08117098 26.82158588 39.73776648 26.421875 41.390625 C25.39787235 45.69143613 24.77136161 49.54155135 25 54 C26.65 54.33 28.3 54.66 30 55 C30 55.66 30 56.32 30 57 C15.48 57 0.96 57 -14 57 C-14 56.34 -14 55.68 -14 55 C-13.071875 54.855625 -12.14375 54.71125 -11.1875 54.5625 C-7.62103127 53.25673527 -7.62103127 53.25673527 -6.5234375 49.2890625 C-4.57351709 42.86628432 -3.02239997 36.3327444 -1.4375 29.8125 C-0.83424964 27.3393016 -0.2288554 24.86662492 0.37890625 22.39453125 C0.6426001 21.31018799 0.90629395 20.22584473 1.17797852 19.10864258 C1.99443242 16.02105494 2.98137084 13.02576167 4 10 C4.43300876 7.72094248 4.43300876 7.72094248 4.625 5.625 C4.74875 4.42875 4.8725 3.2325 5 2 C3.35 2 1.7 2 0 2 C0 1.34 0 0.68 0 0 Z " fill="#F7F7F7" transform="translate(364,128)"/>
<path d="M0 0 C7.59 0 15.18 0 23 0 C23.04898438 1.90265625 23.09796875 3.8053125 23.1484375 5.765625 C23.22346927 8.26043142 23.29901692 10.75522237 23.375 13.25 C23.4059375 14.50425781 23.436875 15.75851563 23.46875 17.05078125 C23.50742188 18.25605469 23.54609375 19.46132812 23.5859375 20.703125 C23.63306885 22.36843262 23.63306885 22.36843262 23.68115234 24.06738281 C23.99284815 26.93422047 24.64319742 28.51208081 26 31 C26.1953125 34.234375 26.1953125 34.234375 26.125 37.75 C26.10695312 38.92046875 26.08890625 40.0909375 26.0703125 41.296875 C26.04710937 42.18890625 26.02390625 43.0809375 26 44 C22.02084841 44.02886984 18.04172347 44.04675406 14.0625 44.0625 C12.35803711 44.07506836 12.35803711 44.07506836 10.61914062 44.08789062 C9.53955078 44.09111328 8.45996094 44.09433594 7.34765625 44.09765625 C5.84730835 44.10551147 5.84730835 44.10551147 4.31665039 44.11352539 C2 44 2 44 1 43 C0.95195277 41.06309584 0.96323319 39.12465112 1 37.1875 C1.03763127 32.85049651 0.93507797 28.6270232 0.5 24.3125 C-0.27388563 16.21395034 -0.06158051 8.12862785 0 0 Z " fill="#D03430" transform="translate(115,63)"/>
<path d="M0 0 C0.33 0 0.66 0 1 0 C1 8.58 1 17.16 1 26 C0.34 26 -0.32 26 -1 26 C-0.99777939 26.59389023 -0.99555878 27.18778046 -0.99327087 27.79966736 C-0.97104755 34.01333003 -0.95602262 40.22698129 -0.94506836 46.44067383 C-0.94005765 48.75578266 -0.93324729 51.07088837 -0.92456055 53.38598633 C-0.91235158 56.72478004 -0.90673892 60.06353169 -0.90234375 63.40234375 C-0.89460182 64.94038918 -0.89460182 64.94038918 -0.88670349 66.50950623 C-0.88630359 71.69989977 -1.11577884 76.7319312 -1.76295471 81.88087463 C-2.15590066 85.39371278 -2.21398589 88.90583482 -2.28125 92.4375 C-2.29965942 93.20247803 -2.31806885 93.96745605 -2.33703613 94.75561523 C-2.39505757 97.17034193 -2.44817674 99.58513285 -2.5 102 C-2.56840669 105.18762384 -2.64204346 108.37506622 -2.71875 111.5625 C-2.73232544 112.275271 -2.74590088 112.98804199 -2.7598877 113.72241211 C-2.88531658 118.9070077 -3.42177826 123.79600433 -4 129 C57.38 129 118.76 129 182 129 C181.01 117.12 181.01 117.12 180 105 C180 104.01 180 103.02 180 102 C179.34 102 178.68 102 178 102 C177.96241577 100.78098999 177.96241577 100.78098999 177.92407227 99.53735352 C177.80850882 95.87889248 177.68560416 92.22071472 177.5625 88.5625 C177.52318359 87.28310547 177.48386719 86.00371094 177.44335938 84.68554688 C177.38051758 82.86313477 177.38051758 82.86313477 177.31640625 81.00390625 C177.27974854 79.87799072 177.24309082 78.7520752 177.20532227 77.59204102 C177.28781955 75.07146559 177.28781955 75.07146559 176 74 C175.91232888 71.92737924 175.89304127 69.85179706 175.90234375 67.77734375 C175.90484131 66.64288818 175.90733887 65.50843262 175.90991211 64.33959961 C175.91901611 62.88690674 175.92812012 61.43421387 175.9375 59.9375 C175.958125 55.338125 175.97875 50.73875 176 46 C159.83 46 143.66 46 127 46 C127 45.67 127 45.34 127 45 C143.5 45 160 45 177 45 C177 50.94 177 56.88 177 63 C177.66 63 178.32 63 179 63 C179.05534912 63.80743652 179.11069824 64.61487305 179.16772461 65.44677734 C179.41992036 69.08983819 179.67862626 72.73240786 179.9375 76.375 C180.02451172 77.64601563 180.11152344 78.91703125 180.20117188 80.2265625 C180.28818359 81.43828125 180.37519531 82.65 180.46484375 83.8984375 C180.543396 85.01911621 180.62194824 86.13979492 180.70288086 87.29443359 C180.83780869 89.96470413 180.83780869 89.96470413 182 92 C182.13903154 93.411636 182.22522907 94.82873437 182.28125 96.24609375 C182.33732422 97.50196289 182.33732422 97.50196289 182.39453125 98.78320312 C182.42933594 99.65912109 182.46414062 100.53503906 182.5 101.4375 C182.56896781 103.16552671 182.64172785 104.89340731 182.71875 106.62109375 C182.74904297 107.3886499 182.77933594 108.15620605 182.81054688 108.94702148 C182.93976993 111.19883271 182.93976993 111.19883271 184 114 C184.09610691 116.71926022 184.13933225 119.40664954 184.125 122.125 C184.12886719 122.86621094 184.13273438 123.60742188 184.13671875 124.37109375 C184.1266598 129.8733402 184.1266598 129.8733402 183 131 C180.5588998 131.09769053 178.14612708 131.12996385 175.70457458 131.12025452 C174.93192876 131.12110894 174.15928294 131.12196337 173.36322361 131.12284368 C170.75441446 131.12450082 168.14566854 131.11897331 165.53686523 131.11352539 C163.67467246 131.11324354 161.81247957 131.1134012 159.95028687 131.1139679 C154.87818414 131.11425597 149.80610485 131.10835771 144.7340076 131.10139394 C139.43953999 131.09516197 134.1450719 131.09455673 128.8506012 131.09336853 C118.81728576 131.09025475 108.78398115 131.08204073 98.75067049 131.07201904 C87.33127715 131.06085935 75.91188331 131.05534782 64.49248588 131.05032361 C40.99498457 131.03985815 17.49749289 131.02225781 -6 131 C-6.02473868 127.06731133 -6.04287835 123.13465287 -6.05493164 119.2019043 C-6.06242729 117.20685232 -6.07513345 115.21182214 -6.08789062 113.21679688 C-6.09111328 111.96318359 -6.09433594 110.70957031 -6.09765625 109.41796875 C-6.10289307 108.26063232 -6.10812988 107.1032959 -6.11352539 105.91088867 C-6 103 -6 103 -5 100 C-4.89220594 98.64531052 -4.83433266 97.28625341 -4.81054688 95.92749023 C-4.78547058 94.70623695 -4.78547058 94.70623695 -4.7598877 93.46031189 C-4.74631226 92.5852449 -4.73273682 91.71017792 -4.71875 90.80859375 C-4.70034058 89.9075441 -4.68193115 89.00649445 -4.66296387 88.07814026 C-4.58425619 84.21993919 -4.51645309 80.36156404 -4.44775391 76.50317383 C-4.39608606 73.68822447 -4.33882124 70.87342754 -4.28125 68.05859375 C-4.26767456 67.18150253 -4.25409912 66.30441132 -4.2401123 65.40074158 C-4.11282481 59.22564963 -4.11282481 59.22564963 -3 57 C-2.86651952 54.12650892 -2.78979114 51.2734874 -2.75390625 48.3984375 C-2.72089822 46.60937139 -2.68768804 44.820309 -2.65429688 43.03125 C-2.60742303 40.22561956 -2.56314063 37.41999562 -2.52319336 34.61425781 C-2.34881942 22.9322481 -1.75713115 11.56153269 0 0 Z " fill="#FADBCC" transform="translate(15,62)"/>
<path d="M0 0 C2.15625 0.35546875 2.15625 0.35546875 4.59375 2.10546875 C7.74334921 6.64089162 8.65199977 10.64852827 9.28125 16.10546875 C9.36761719 16.80285156 9.45398438 17.50023437 9.54296875 18.21875 C9.75396846 19.93019207 9.95600501 21.64273504 10.15625 23.35546875 C10.56875 22.59363281 10.98125 21.83179688 11.40625 21.046875 C15.82006516 13.15520995 20.50470272 5.45650027 28.15625 0.35546875 C30.87908905 0.04292497 33.40067486 0.22213447 36.15625 0.35546875 C37.15625 1.35546875 37.15625 1.35546875 37.40625 4.23046875 C37.15625 7.35546875 37.15625 7.35546875 35.90625 9.29296875 C34.15625 10.35546875 34.15625 10.35546875 31.96875 10.04296875 C31.370625 9.81609375 30.7725 9.58921875 30.15625 9.35546875 C30.15625 7.37546875 30.15625 5.39546875 30.15625 3.35546875 C24.89535449 4.74805874 22.2135925 8.10759426 19.15625 12.35546875 C18.43179688 13.34933594 17.70734375 14.34320313 16.9609375 15.3671875 C10.74270156 24.56759752 10.3022438 31.57689855 12.15625 42.35546875 C12.31222656 43.31453125 12.46820313 44.27359375 12.62890625 45.26171875 C13.31710865 48.82417824 14.1299122 51.31596205 16.15625 54.35546875 C19.040225 54.57337594 19.040225 54.57337594 22.15625 53.35546875 C23.92790873 50.51007745 25.07001616 47.5183261 26.15625 44.35546875 C26.81625 44.35546875 27.47625 44.35546875 28.15625 44.35546875 C26.59809004 49.77361587 25.17169136 54.21049702 21.15625 58.35546875 C18.7602874 59.55345005 17.439203 59.46516172 14.78125 59.29296875 C14.01039063 59.26074219 13.23953125 59.22851562 12.4453125 59.1953125 C8.8500082 57.87621621 7.9182144 55.67900246 6.15625 52.35546875 C5.34459194 49.759165 4.84795479 47.16187666 4.40625 44.48046875 C4.28121094 43.79210937 4.15617187 43.10375 4.02734375 42.39453125 C3.72446608 40.71705493 3.43856527 39.03652787 3.15625 37.35546875 C2.73214844 37.98453125 2.30804688 38.61359375 1.87109375 39.26171875 C-9.32026775 55.59372763 -9.32026775 55.59372763 -16.84375 59.35546875 C-20.59375 59.73046875 -20.59375 59.73046875 -23.84375 59.35546875 C-25.84375 57.35546875 -25.84375 57.35546875 -26.15625 54.91796875 C-25.84375 52.35546875 -25.84375 52.35546875 -24.65625 50.48046875 C-22.84375 49.35546875 -22.84375 49.35546875 -20.15625 49.66796875 C-19.0115625 50.00828125 -19.0115625 50.00828125 -17.84375 50.35546875 C-18.17375 52.33546875 -18.50375 54.31546875 -18.84375 56.35546875 C-11.96186936 53.99596682 -8.11150762 49.79846231 -4.15625 43.85546875 C-3.76630859 43.28699219 -3.37636719 42.71851563 -2.97460938 42.1328125 C3.24882231 32.96255931 3.03302157 25.57010721 1.07885742 14.79785156 C0.47069188 11.64283911 -0.1737767 8.49796258 -0.84375 5.35546875 C-4.88379118 5.06733333 -4.88379118 5.06733333 -8.53125 6.41796875 C-10.44078368 9.23680418 -11.58959958 12.19023198 -12.84375 15.35546875 C-13.67082306 12.98558632 -13.97009 11.73816144 -13.171875 9.3203125 C-12.81609375 8.65128906 -12.4603125 7.98226562 -12.09375 7.29296875 C-11.74828125 6.62136719 -11.4028125 5.94976562 -11.046875 5.2578125 C-7.94751135 0.3571953 -5.65335652 -0.19272806 0 0 Z " fill="#121212" transform="translate(323.84375,126.64453125)"/>
<path d="M0 0 C7.59 0 15.18 0 23 0 C23 8.91 23 17.82 23 27 C25.31 27 27.62 27 30 27 C30.495 27.99 30.495 27.99 31 29 C31.8355542 29.40839111 32.6711084 29.81678223 33.53198242 30.23754883 C36 32 36 32 36.56762695 34.8190918 C36.54144287 35.93453369 36.51525879 37.04997559 36.48828125 38.19921875 C36.47216797 39.40771484 36.45605469 40.61621094 36.43945312 41.86132812 C36.37661133 43.7552832 36.37661133 43.7552832 36.3125 45.6875 C36.28994141 46.96173828 36.26738281 48.23597656 36.24414062 49.54882812 C36.18512262 52.7003896 36.10282975 55.84961279 36 59 C33.04142591 59.05379226 30.08382279 59.09357093 27.125 59.125 C25.86236328 59.15013672 25.86236328 59.15013672 24.57421875 59.17578125 C23.76855469 59.18222656 22.96289062 59.18867187 22.1328125 59.1953125 C21.38918457 59.20578613 20.64555664 59.21625977 19.87939453 59.22705078 C18 59 18 59 16 57 C15.54184012 52.87248852 15.67599142 48.71249232 15.6875 44.5625 C15.67138672 43.40427734 15.65527344 42.24605469 15.63867188 41.05273438 C15.63802734 39.94349609 15.63738281 38.83425781 15.63671875 37.69140625 C15.63373779 36.67248291 15.63075684 35.65355957 15.62768555 34.60375977 C16 32 16 32 17.33520508 30.14428711 C19 29 19 29 22 29 C22 19.76 22 10.52 22 1 C15.07 1 8.14 1 1 1 C1 14.53 1 28.06 1 42 C-0.485 42.495 -0.485 42.495 -2 43 C-2 37.39 -2 31.78 -2 26 C-1.34 26 -0.68 26 0 26 C0 17.42 0 8.84 0 0 Z " fill="#F6AE31" transform="translate(16,62)"/>
<path d="M0 0 C2.625 -0.1875 2.625 -0.1875 5 0 C7.23302804 4.46605609 6.18584401 10.5786081 6.18530273 15.5480957 C6.1874814 17.79332654 6.20561827 20.03805976 6.22460938 22.28320312 C6.22754501 23.71614416 6.22952867 25.14908752 6.23046875 26.58203125 C6.23457764 27.88374268 6.23868652 29.1854541 6.24291992 30.52661133 C5.95095959 34.70120399 5.19277375 37.62875636 2.43359375 40.80078125 C-4.99008445 46.42301895 -13.1024959 45.92905665 -22 45 C-25.015625 43.96875 -25.015625 43.96875 -27 43 C-27 42.34 -27 41.68 -27 41 C-27.66 41 -28.32 41 -29 41 C-33.9832272 34.68004914 -33.51535608 28.05509285 -33.35668945 20.3371582 C-33.31225758 18.17570691 -33.29519032 16.01536911 -33.28320312 13.85351562 C-33.18081838 3.36163676 -33.18081838 3.36163676 -32 1 C-30.35 1 -28.7 1 -27 1 C-26.97494385 1.87736816 -26.9498877 2.75473633 -26.92407227 3.65869141 C-26.82854616 6.93517191 -26.72933757 10.21149898 -26.62768555 13.48779297 C-26.58455749 14.90181165 -26.54286832 16.31587502 -26.50268555 17.72998047 C-26.4444425 19.7706444 -26.38090859 21.81108795 -26.31640625 23.8515625 C-26.27974854 25.07697754 -26.24309082 26.30239258 -26.20532227 27.56494141 C-26.01327887 30.77784342 -25.5944606 33.83941587 -25 37 C-21.28570102 38.1161656 -17.60838492 38.3124195 -13.75 38.5625 C-12.48671875 38.64628906 -11.2234375 38.73007813 -9.921875 38.81640625 C-8.47554687 38.90728516 -8.47554687 38.90728516 -7 39 C-7 38.34 -7 37.68 -7 37 C-6.35111816 36.60748047 -5.70223633 36.21496094 -5.03369141 35.81054688 C-2.67744572 34.09536563 -2.67744572 34.09536563 -2.48583984 30.86132812 C-2.47762207 29.59740234 -2.4694043 28.33347656 -2.4609375 27.03125 C-2.44914459 26.35453247 -2.43735168 25.67781494 -2.42520142 24.98059082 C-2.38992081 22.82015987 -2.38077083 20.66069553 -2.375 18.5 C-2.35865151 16.33959502 -2.33659732 14.17962221 -2.30337524 12.01940918 C-2.27475955 10.05930697 -2.26461774 8.09896114 -2.25537109 6.13867188 C-2 3 -2 3 0 0 Z " fill="#EDD9B1" transform="translate(144,123)"/>
<path d="M0 0 C12.87 0 25.74 0 39 0 C38.31167499 4.12995003 37.55818791 7.87950396 36.4375 11.875 C36.16808594 12.84179688 35.89867187 13.80859375 35.62109375 14.8046875 C35.41613281 15.52914062 35.21117187 16.25359375 35 17 C34.34 17 33.68 17 33 17 C33.03480469 16.15695313 33.06960938 15.31390625 33.10546875 14.4453125 C33.14607422 12.80175781 33.14607422 12.80175781 33.1875 11.125 C33.22230469 10.03445312 33.25710938 8.94390625 33.29296875 7.8203125 C33.14794922 6.42425781 33.14794922 6.42425781 33 5 C29.31912647 2.54608431 26.55644412 2.77197241 22.3125 2.875 C21.61060547 2.88402344 20.90871094 2.89304688 20.18554688 2.90234375 C18.45688475 2.92586296 16.72839855 2.96173287 15 3 C12.1393394 8.11731074 10.71823027 13.23509126 9.3125 18.875 C9.08755859 19.75414062 8.86261719 20.63328125 8.63085938 21.5390625 C8.08111975 23.69123464 7.53768545 25.84479076 7 28 C8.45001084 27.87893077 9.89908085 27.74655559 11.34765625 27.609375 C12.15468994 27.53686523 12.96172363 27.46435547 13.79321289 27.38964844 C16.18909792 27.13086209 16.18909792 27.13086209 18.4375 25.25 C20.06675314 22.90387547 21.09827158 20.70518525 22 18 C22.66 18 23.32 18 24 18 C22.60695059 25.40774509 20.88100377 32.70170537 19 40 C18.34 40 17.68 40 17 40 C17 37.03 17 34.06 17 31 C13.37 30.67 9.74 30.34 6 30 C5.52438711 32.14025799 5.04945928 34.28067069 4.578125 36.421875 C4.20604045 38.08117098 3.82158588 39.73776648 3.421875 41.390625 C2.39787235 45.69143613 1.77136161 49.54155135 2 54 C3.65 54.33 5.3 54.66 7 55 C7 55.66 7 56.32 7 57 C-0.26 57 -7.52 57 -15 57 C-15 56.34 -15 55.68 -15 55 C-14.071875 54.814375 -13.14375 54.62875 -12.1875 54.4375 C-8.58432242 52.81253756 -8.12966685 51.77901874 -6.73901367 48.22290039 C-5.24180664 43.71940848 -4.16399264 39.11308885 -3.0625 34.5 C-2.54143606 32.35911393 -2.0193009 30.2184883 -1.49609375 28.078125 C-1.11686768 26.52254883 -1.11686768 26.52254883 -0.72998047 24.93554688 C0.5289138 19.87302357 1.92562517 14.8502128 3.3359375 9.828125 C4.15239308 6.83515845 4.15239308 6.83515845 4 3 C2.68 2.67 1.36 2.34 0 2 C0 1.34 0 0.68 0 0 Z " fill="#0E0E0E" transform="translate(387,128)"/>
<path d="M0 0 C6.6 0 13.2 0 20 0 C20 0.66 20 1.32 20 2 C19.071875 2.165 18.14375 2.33 17.1875 2.5 C13.69256538 3.72384345 13.69256538 3.72384345 12.49609375 7.3203125 C10.58651186 12.90303501 9.25104249 18.64264209 7.875 24.375 C7.35363022 26.52914734 6.83029365 28.68281991 6.3046875 30.8359375 C6.07765137 31.78001465 5.85061523 32.7240918 5.61669922 33.69677734 C5 36 5 36 4 38 C3.8518456 39.95449844 3.77875151 41.9151053 3.75 43.875 C3.72421875 44.92429688 3.6984375 45.97359375 3.671875 47.0546875 C4.04568212 50.41005145 4.48258173 51.75401584 7 54 C12.34154314 55.04826821 17.46323014 54.67059048 22.4375 52.5 C28.48098817 46.60391398 31.02175154 39.78423396 33.125 31.75 C33.37652832 30.82630615 33.62805664 29.9026123 33.88720703 28.95092773 C34.60386773 26.30374197 35.30275666 23.65235137 36 21 C36.34546875 19.73800781 36.6909375 18.47601563 37.046875 17.17578125 C38.35102573 12.27291269 39.13368443 8.10228891 39 3 C37.68 2.34 36.36 1.68 35 1 C35 0.67 35 0.34 35 0 C39.95 0 44.9 0 50 0 C50 0.66 50 1.32 50 2 C48.6078125 2.2165625 48.6078125 2.2165625 47.1875 2.4375 C43.9703807 3.61614049 43.9703807 3.61614049 43.11376953 5.76318359 C41.62547545 10.65639882 40.35411781 15.55087923 39.26416016 20.54833984 C33.35888359 47.57460557 33.35888359 47.57460557 23 55 C17.03845403 58.6236848 10.80249614 58.86800228 4 58 C0.22862758 56.52330139 -1.74588422 54.38117367 -4 51 C-5.31721217 40.91509429 -2.71384744 31.52817312 0 21.9375 C0.57545627 19.85605727 1.14617296 17.77345039 1.71191406 15.68934631 C2.22090328 13.82161394 2.74287571 11.95743381 3.265625 10.09350586 C4.15398226 6.88127308 4.15398226 6.88127308 4 3 C2.68 2.67 1.36 2.34 0 2 C0 1.34 0 0.68 0 0 Z " fill="#0B0B0B" transform="translate(262,128)"/>
<path d="M0 0 C2.84317203 0.67323643 4.34096529 2.29632113 5.97265625 4.65625 C10.03142867 11.85979648 10.94636034 19.37118425 11.99609375 27.47265625 C12.34800781 26.71082031 12.69992187 25.94898438 13.0625 25.1640625 C17.41511263 16.0610789 22.90743049 5.71765575 31.99609375 0.47265625 C35.87109375 0.03515625 35.87109375 0.03515625 38.99609375 0.47265625 C39.99609375 1.47265625 39.99609375 1.47265625 40.12109375 4.97265625 C39.99609375 8.47265625 39.99609375 8.47265625 38.99609375 9.47265625 C36.99651011 9.51346408 34.99564121 9.51519981 32.99609375 9.47265625 C33.32609375 7.16265625 33.65609375 4.85265625 33.99609375 2.47265625 C22.88351172 8.58457637 15.91627491 21.19220457 12.20898438 32.97412109 C8.82119091 44.04230455 8.82119091 44.04230455 7.99609375 55.47265625 C9.31609375 55.80265625 10.63609375 56.13265625 11.99609375 56.47265625 C11.99609375 57.13265625 11.99609375 57.79265625 11.99609375 58.47265625 C5.06609375 58.47265625 -1.86390625 58.47265625 -9.00390625 58.47265625 C-8.67390625 57.81265625 -8.34390625 57.15265625 -8.00390625 56.47265625 C-4.94140625 55.84765625 -4.94140625 55.84765625 -2.00390625 55.47265625 C-1.28433289 52.8801508 -0.57386729 50.28568125 0.125 47.6875 C0.69857311 45.57068086 1.2893186 43.45842831 1.8984375 41.3515625 C3.55368638 35.36368062 4.3444929 30.59152814 2.99609375 24.47265625 C2.67898438 22.64927734 2.67898438 22.64927734 2.35546875 20.7890625 C1.15899213 12.51268469 1.15899213 12.51268469 -3.00390625 5.47265625 C-4.94341525 5.66453781 -4.94341525 5.66453781 -7.00390625 6.47265625 C-8.34622067 8.31249049 -8.34622067 8.31249049 -9.25390625 10.53515625 C-9.5890625 11.26863281 -9.92421875 12.00210938 -10.26953125 12.7578125 C-10.63304687 13.60666016 -10.63304687 13.60666016 -11.00390625 14.47265625 C-12.00390625 12.47265625 -12.00390625 12.47265625 -11.55078125 10.4140625 C-11.15632813 9.23650391 -11.15632813 9.23650391 -10.75390625 8.03515625 C-10.50125 7.25269531 -10.24859375 6.47023437 -9.98828125 5.6640625 C-7.82248242 0.84258178 -5.35607605 -0.22603624 0 0 Z " fill="#0C0C0C" transform="translate(436.00390625,126.52734375)"/>
<path d="M0 0 C6.6 0 13.2 0 20 0 C20 0.66 20 1.32 20 2 C18.02 2.33 16.04 2.66 14 3 C11.06342676 11.07147506 8.88583912 19.21114853 6.86767578 27.55029297 C5.4001756 33.56260363 3.69733581 39.41334714 1.69921875 45.2734375 C0.92937039 48.27541601 0.87708577 50.91348713 1 54 C3.72943537 54.05416741 6.45778564 54.09375225 9.1875 54.125 C9.95642578 54.14175781 10.72535156 54.15851563 11.51757812 54.17578125 C15.76310385 54.21222353 19.19218043 54.12854904 23 52 C24.22772827 49.76740335 24.22772827 49.76740335 25 47 C25.52944888 45.7240282 26.07155533 44.45324845 26.625 43.1875 C27.07875 42.135625 27.5325 41.08375 28 40 C28.66 40 29.32 40 30 40 C29.80083984 41.08667969 29.80083984 41.08667969 29.59765625 42.1953125 C29.42105469 43.16210938 29.24445313 44.12890625 29.0625 45.125 C28.88847656 46.07632813 28.71445313 47.02765625 28.53515625 48.0078125 C27.99980717 51.00107815 27.49989831 54.00061014 27 57 C13.14 57 -0.72 57 -15 57 C-15 56.34 -15 55.68 -15 55 C-14.071875 54.855625 -13.14375 54.71125 -12.1875 54.5625 C-8.96461645 53.38440492 -8.96461645 53.38440492 -8.11816406 51.21704102 C-7.89870117 50.48670654 -7.67923828 49.75637207 -7.453125 49.00390625 C-7.20715576 48.19332764 -6.96118652 47.38274902 -6.70776367 46.54760742 C-5.58507769 42.50648005 -4.54543856 38.45227083 -3.5625 34.375 C-1.75048716 26.97043153 0.15986368 19.60573588 2.203125 12.26171875 C3.035817 8.85339609 3.55907544 5.47889476 4 2 C2.68 1.34 1.36 0.68 0 0 Z " fill="#0A0A0A" transform="translate(221,128)"/>
<path d="M0 0 C6.93 0 13.86 0 21 0 C20.67 0.66 20.34 1.32 20 2 C19.21625 2.04125 18.4325 2.0825 17.625 2.125 C16.325625 2.558125 16.325625 2.558125 15 3 C12.18052355 9.33080331 10.66833878 15.96535963 9.0625 22.6875 C7.19547945 30.37365391 5.24186208 37.93215639 2.6640625 45.4140625 C1.90867347 48.35563624 1.88468964 50.97532063 2 54 C3.32 54.33 4.64 54.66 6 55 C6 55.66 6 56.32 6 57 C-0.6 57 -7.2 57 -14 57 C-14 56.34 -14 55.68 -14 55 C-13.071875 54.855625 -12.14375 54.71125 -11.1875 54.5625 C-7.62103127 53.25673527 -7.62103127 53.25673527 -6.5234375 49.2890625 C-4.57351709 42.86628432 -3.02239997 36.3327444 -1.4375 29.8125 C-0.83424964 27.3393016 -0.2288554 24.86662492 0.37890625 22.39453125 C0.6426001 21.31018799 0.90629395 20.22584473 1.17797852 19.10864258 C1.99443242 16.02105494 2.98137084 13.02576167 4 10 C4.43300876 7.72094248 4.43300876 7.72094248 4.625 5.625 C4.74875 4.42875 4.8725 3.2325 5 2 C3.35 2 1.7 2 0 2 C0 1.34 0 0.68 0 0 Z " fill="#0C0C0C" transform="translate(364,128)"/>
<path d="M0 0 C2.3125 0.328125 2.3125 0.328125 4 0.75 C4.495 2.235 4.495 2.235 5 3.75 C2 5.75 2 5.75 -2 5.75 C-2.433125 7.296875 -2.433125 7.296875 -2.875 8.875 C-3.82308798 12.20007997 -4.88256594 15.47751453 -6 18.75 C-6.66 18.75 -7.32 18.75 -8 18.75 C-8 26.34 -8 33.93 -8 41.75 C0.91 41.75 9.82 41.75 19 41.75 C19 42.08 19 42.41 19 42.75 C4.15 42.75 -10.7 42.75 -26 42.75 C-26 51.66 -26 60.57 -26 69.75 C-28.31 69.75 -30.62 69.75 -33 69.75 C-33 60.84 -33 51.93 -33 42.75 C-40.59 42.75 -48.18 42.75 -56 42.75 C-56 42.42 -56 42.09 -56 41.75 C-48.08 41.75 -40.16 41.75 -32 41.75 C-32 47.03 -32 52.31 -32 57.75 C-31.01 57.75 -30.02 57.75 -29 57.75 C-29.01160156 56.67878906 -29.02320312 55.60757813 -29.03515625 54.50390625 C-29.04453299 53.10677257 -29.05363331 51.70963701 -29.0625 50.3125 C-29.07087891 49.60544922 -29.07925781 48.89839844 -29.08789062 48.16992188 C-29.09653588 46.36306441 -29.05220011 44.55612397 -29 42.75 C-28 41.75 -28 41.75 -24.62109375 41.65234375 C-23.22652923 41.65901631 -21.83198257 41.67097468 -20.4375 41.6875 C-19.72658203 41.69201172 -19.01566406 41.69652344 -18.28320312 41.70117188 C-16.52209987 41.71299136 -14.76103964 41.73092737 -13 41.75 C-13.0628418 40.52651855 -13.0628418 40.52651855 -13.12695312 39.27832031 C-13.26497386 36.1920718 -13.36436505 33.10741554 -13.43945312 30.01904297 C-13.49851919 28.04938013 -13.60028192 26.08114399 -13.703125 24.11328125 C-13.8807415 15.36566883 -12.25627425 10.07646223 -7.22070312 2.91210938 C-4.68849451 0.44671366 -3.48037022 0.0529062 0 0 Z " fill="#DEDFE1" transform="translate(72,19.25)"/>
<path d="M0 0 C16.5 0 33 0 50 0 C50 5.94 50 11.88 50 18 C50.66 18 51.32 18 52 18 C52.05534912 18.80743652 52.11069824 19.61487305 52.16772461 20.44677734 C52.41992036 24.08983819 52.67862626 27.73240786 52.9375 31.375 C53.02451172 32.64601562 53.11152344 33.91703125 53.20117188 35.2265625 C53.28818359 36.43828125 53.37519531 37.65 53.46484375 38.8984375 C53.543396 40.01911621 53.62194824 41.13979492 53.70288086 42.29443359 C53.83780869 44.96470413 53.83780869 44.96470413 55 47 C55.13903154 48.411636 55.22522907 49.82873437 55.28125 51.24609375 C55.33732422 52.50196289 55.33732422 52.50196289 55.39453125 53.78320312 C55.42933594 54.65912109 55.46414062 55.53503906 55.5 56.4375 C55.56896781 58.16552671 55.64172785 59.89340731 55.71875 61.62109375 C55.74904297 62.3886499 55.77933594 63.15620605 55.81054688 63.94702148 C55.93976993 66.19883271 55.93976993 66.19883271 57 69 C57 74.28 57 79.56 57 85 C-5.04 85 -67.08 85 -131 85 C-131 84.67 -131 84.34 -131 84 C-69.62 84 -8.24 84 55 84 C54.01 72.12 54.01 72.12 53 60 C53 59.01 53 58.02 53 57 C52.34 57 51.68 57 51 57 C50.97494385 56.18732666 50.9498877 55.37465332 50.92407227 54.53735352 C50.80850882 50.87889248 50.68560416 47.22071472 50.5625 43.5625 C50.52318359 42.28310547 50.48386719 41.00371094 50.44335938 39.68554688 C50.38051758 37.86313477 50.38051758 37.86313477 50.31640625 36.00390625 C50.27974854 34.87799072 50.24309082 33.7520752 50.20532227 32.59204102 C50.28781955 30.07146559 50.28781955 30.07146559 49 29 C48.91232888 26.92737924 48.89304127 24.85179706 48.90234375 22.77734375 C48.90484131 21.64288818 48.90733887 20.50843262 48.90991211 19.33959961 C48.91901611 17.88690674 48.92812012 16.43421387 48.9375 14.9375 C48.958125 10.338125 48.97875 5.73875 49 1 C32.83 1 16.66 1 0 1 C0 0.67 0 0.34 0 0 Z " fill="#F5B080" transform="translate(142,107)"/>
<path d="M0 0 C2.64 0 5.28 0 8 0 C8.06058594 1.10859375 8.12117187 2.2171875 8.18359375 3.359375 C8.26802951 4.8229282 8.35267599 6.28646925 8.4375 7.75 C8.47681641 8.47960937 8.51613281 9.20921875 8.55664062 9.9609375 C8.76171746 13.97224642 8.76171746 13.97224642 9.51367188 17.90429688 C10.10716736 20.46180954 10.11223963 22.79686634 10.09765625 25.421875 C10.09443359 26.44667969 10.09121094 27.47148438 10.08789062 28.52734375 C10.07951172 29.59082031 10.07113281 30.65429688 10.0625 31.75 C10.05798828 32.82894531 10.05347656 33.90789062 10.04882812 35.01953125 C10.03705727 37.67974383 10.02061399 40.33984365 10 43 C7.36 43 4.72 43 2 43 C1.97494385 42.35450195 1.9498877 41.70900391 1.92407227 41.04394531 C1.80785567 38.11244106 1.68524558 35.18123783 1.5625 32.25 C1.52318359 31.23421875 1.48386719 30.2184375 1.44335938 29.171875 C1.40146484 28.1921875 1.35957031 27.2125 1.31640625 26.203125 C1.27974854 25.30239258 1.24309082 24.40166016 1.20532227 23.47363281 C1.01618115 21.19494346 0.55604378 19.20854337 0 17 C-0.07708723 15.63199181 -0.10803609 14.26076408 -0.09765625 12.890625 C-0.09443359 12.13652344 -0.09121094 11.38242188 -0.08789062 10.60546875 C-0.07951172 9.82816406 -0.07113281 9.05085938 -0.0625 8.25 C-0.05798828 7.45722656 -0.05347656 6.66445312 -0.04882812 5.84765625 C-0.03708565 3.89840492 -0.01915146 1.94919262 0 0 Z " fill="#AB2B27" transform="translate(123,63)"/>
<path d="M0 0 C15.18 0 30.36 0 46 0 C48.25 4.5 48.25 4.5 48.22705078 8.12597656 C48.22689972 8.92650452 48.22674866 9.72703247 48.22659302 10.55181885 C48.21627045 11.40612488 48.20594788 12.26043091 48.1953125 13.140625 C48.1924826 14.02280701 48.18965271 14.90498901 48.18673706 15.81390381 C48.17555961 18.62607499 48.15045951 21.4379254 48.125 24.25 C48.11496705 26.15884956 48.10584175 28.06770412 48.09765625 29.9765625 C48.07562824 34.65116489 48.04111511 39.32552809 48 44 C48.61165512 43.99777939 49.22331024 43.99555878 49.85350037 43.99327087 C56.19570331 43.97121878 62.53789544 43.95609373 68.88012695 43.94506836 C71.24992312 43.94002659 73.61971615 43.93319335 75.98950195 43.92456055 C79.38754039 43.9124881 82.78553785 43.90677029 86.18359375 43.90234375 C87.25024765 43.89718246 88.31690155 43.89202118 89.4158783 43.88670349 C90.88729027 43.88659019 90.88729027 43.88659019 92.38842773 43.88647461 C93.69081642 43.88314369 93.69081642 43.88314369 95.01951599 43.87974548 C97 44 97 44 98 45 C100.38179663 55.27475771 100.21157155 65.52720832 100 76 C99.67 76 99.34 76 99 76 C99 72.04 99 68.08 99 64 C98.34 64 97.68 64 97 64 C97 58.06 97 52.12 97 46 C80.5 46 64 46 47 46 C46.505 37.9253125 46.505 37.9253125 46 29.6875 C45.84337891 27.17515747 45.84337891 27.17515747 45.68359375 24.61206055 C45.60130142 23.24529564 45.51925486 21.87851591 45.4375 20.51171875 C45.39431641 19.83387329 45.35113281 19.15602783 45.30664062 18.4576416 C44.96186999 12.60782793 45 6.89421588 45 1 C30.81 1 16.62 1 2 1 C2 5.95 2 10.9 2 16 C1.34 16 0.68 16 0 16 C0 10.72 0 5.44 0 0 Z " fill="#F4DAD0" transform="translate(95,61)"/>
<path d="M0 0 C1.65 0 3.3 0 5 0 C5.33 12.21 5.66 24.42 6 37 C9.95448845 37.98862211 13.70605624 38.32934256 17.75 38.5625 C18.79607422 38.62727539 18.79607422 38.62727539 19.86328125 38.69335938 C21.57531922 38.79889596 23.28763561 38.8998991 25 39 C24.34 39.99 23.68 40.98 23 42 C21.12060547 42.34057617 21.12060547 42.34057617 18.8671875 42.29296875 C18.06152344 42.28330078 17.25585938 42.27363281 16.42578125 42.26367188 C15.58402344 42.23853516 14.74226563 42.21339844 13.875 42.1875 C12.60076172 42.16719727 12.60076172 42.16719727 11.30078125 42.14648438 C9.20025163 42.11108219 7.10004707 42.05727401 5 42 C5 41.34 5 40.68 5 40 C4.34 40 3.68 40 3 40 C-1.9832272 33.68004914 -1.51535608 27.05509285 -1.35668945 19.3371582 C-1.31225758 17.17570691 -1.29519032 15.01536911 -1.28320312 12.85351562 C-1.18081838 2.36163676 -1.18081838 2.36163676 0 0 Z " fill="#EAE6DA" transform="translate(112,124)"/>
<path d="M0 0 C7.59 0 15.18 0 23 0 C23 9.9 23 19.8 23 30 C21.02 30.99 21.02 30.99 19 32 C18.67 39.92 18.34 47.84 18 56 C23.28 56 28.56 56 34 56 C34 48.08 34 40.16 34 32 C33.34 32 32.68 32 32 32 C32 31.34 32 30.68 32 30 C33.32 30.66 34.64 31.32 36 32 C36 40.91 36 49.82 36 59 C31.606875 59.061875 31.606875 59.061875 27.125 59.125 C25.74272217 59.15231201 25.74272217 59.15231201 24.33251953 59.18017578 C23.60661621 59.1851709 22.88071289 59.19016602 22.1328125 59.1953125 C21.38918457 59.20578613 20.64555664 59.21625977 19.87939453 59.22705078 C18 59 18 59 16 57 C15.54184012 52.87248852 15.67599142 48.71249232 15.6875 44.5625 C15.67138672 43.40427734 15.65527344 42.24605469 15.63867188 41.05273438 C15.63802734 39.94349609 15.63738281 38.83425781 15.63671875 37.69140625 C15.63373779 36.67248291 15.63075684 35.65355957 15.62768555 34.60375977 C16 32 16 32 17.33520508 30.14428711 C19 29 19 29 22 29 C22 19.76 22 10.52 22 1 C15.07 1 8.14 1 1 1 C1 14.53 1 28.06 1 42 C-0.485 42.495 -0.485 42.495 -2 43 C-2 37.39 -2 31.78 -2 26 C-1.34 26 -0.68 26 0 26 C0 17.42 0 8.84 0 0 Z " fill="#F38D34" transform="translate(16,62)"/>
<path d="M0 0 C0.66 0 1.32 0 2 0 C2.12624499 7.32220929 2.12624499 7.32220929 1.5234375 10.55859375 C0.62044537 16.49543009 0.6391265 22.50513452 0.48242188 28.50195312 C0.44826172 29.49001953 0.41410156 30.47808594 0.37890625 31.49609375 C0.34132202 32.82918579 0.34132202 32.82918579 0.30297852 34.18920898 C0 37 0 37 -2 44 C-27.08 44 -52.16 44 -78 44 C-78 41.03 -78 38.06 -78 35 C-77.67 35 -77.34 35 -77 35 C-77 37.31 -77 39.62 -77 42 C-52.58 42 -28.16 42 -3 42 C-3 38.04 -3 34.08 -3 30 C-2.67 29.34 -2.34 28.68 -2 28 C-1.85805376 26.06543375 -1.7738481 24.12648414 -1.71875 22.1875 C-1.68136719 21.02992188 -1.64398438 19.87234375 -1.60546875 18.6796875 C-1.57066406 17.46539062 -1.53585938 16.25109375 -1.5 15 C-1.43132602 12.6040413 -1.3586165 10.20819377 -1.28125 7.8125 C-1.25095703 6.74644531 -1.22066406 5.68039063 -1.18945312 4.58203125 C-1 2 -1 2 0 0 Z " fill="#ED524D" transform="translate(89,147)"/>
<path d="M0 0 C7.92 0 15.84 0 24 0 C24 5.28 24 10.56 24 16 C24.99 16 25.98 16 27 16 C26.98839844 14.92878906 26.97679688 13.85757813 26.96484375 12.75390625 C26.95546701 11.35677257 26.94636669 9.95963701 26.9375 8.5625 C26.92912109 7.85544922 26.92074219 7.14839844 26.91210938 6.41992188 C26.90346412 4.61306441 26.94779989 2.80612397 27 1 C28 0 28 0 29.90455627 -0.12025452 C30.73728561 -0.11803391 31.57001495 -0.11581329 32.42797852 -0.11352539 C33.36887833 -0.11344986 34.30977814 -0.11337433 35.27919006 -0.11329651 C36.30209641 -0.10813522 37.32500275 -0.10297394 38.37890625 -0.09765625 C39.42070541 -0.0962413 40.46250458 -0.09482635 41.53587341 -0.09336853 C44.87811094 -0.0877508 48.22028257 -0.0751953 51.5625 -0.0625 C53.82226466 -0.05748728 56.08203037 -0.05292398 58.34179688 -0.04882812 C63.89455391 -0.03777561 69.44727225 -0.02102024 75 0 C75 0.33 75 0.66 75 1 C60.15 1 45.3 1 30 1 C30 9.91 30 18.82 30 28 C27.69 28 25.38 28 23 28 C23 19.09 23 10.18 23 1 C15.41 1 7.82 1 0 1 C0 0.67 0 0.34 0 0 Z " fill="#E9BFBE" transform="translate(16,61)"/>
<path d="M0 0 C0.33 0 0.66 0 1 0 C1 8.58 1 17.16 1 26 C0.34 26 -0.32 26 -1 26 C-0.99777939 26.59389023 -0.99555878 27.18778046 -0.99327087 27.79966736 C-0.97104755 34.01333003 -0.95602262 40.22698129 -0.94506836 46.44067383 C-0.94005765 48.75578266 -0.93324729 51.07088837 -0.92456055 53.38598633 C-0.91235158 56.72478004 -0.90673892 60.06353169 -0.90234375 63.40234375 C-0.89460182 64.94038918 -0.89460182 64.94038918 -0.88670349 66.50950623 C-0.88630359 71.69989977 -1.11577884 76.7319312 -1.76295471 81.88087463 C-2.15590066 85.39371278 -2.21398589 88.90583482 -2.28125 92.4375 C-2.29965942 93.20247803 -2.31806885 93.96745605 -2.33703613 94.75561523 C-2.39505757 97.17034193 -2.44817674 99.58513285 -2.5 102 C-2.91118702 121.16054654 -2.91118702 121.16054654 -4 129 C-4.33 129 -4.66 129 -5 129 C-4.89258793 119.9075974 -4.77997287 110.81527866 -4.66066074 101.72302437 C-4.60542777 97.50141155 -4.55200717 93.27979181 -4.50268555 89.05810547 C-4.45504751 84.98617286 -4.40270491 80.91432574 -4.34705925 76.84249496 C-4.32663315 75.28674312 -4.30792049 73.73096783 -4.29092598 72.17517471 C-4.26688756 70.00097403 -4.2368324 67.82693544 -4.20532227 65.65283203 C-4.18977798 64.41373077 -4.1742337 63.17462952 -4.15821838 61.89797974 C-4 59 -4 59 -3 57 C-2.86651952 54.12650892 -2.78979114 51.2734874 -2.75390625 48.3984375 C-2.72089822 46.60937139 -2.68768804 44.820309 -2.65429688 43.03125 C-2.60742303 40.22561956 -2.56314063 37.41999562 -2.52319336 34.61425781 C-2.34881942 22.9322481 -1.75713115 11.56153269 0 0 Z " fill="#F6AFAE" transform="translate(15,62)"/>
<path d="M0 0 C2.97 0 5.94 0 9 0 C9.33 11.22 9.66 22.44 10 34 C7.54713704 30.32070555 7.76771122 28.52622093 7.8046875 24.14453125 C7.80893234 23.15207649 7.80893234 23.15207649 7.81326294 22.13957214 C7.82444082 20.03036263 7.84954019 17.92158075 7.875 15.8125 C7.88503293 14.38086552 7.89415824 12.94922436 7.90234375 11.51757812 C7.92437205 8.01158023 7.95888515 4.50583187 8 1 C6.35 1 4.7 1 3 1 C2.92563245 5.6081187 2.87129606 10.21588514 2.83520508 14.82446289 C2.82015378 16.39093107 2.79970793 17.95735736 2.77368164 19.52368164 C2.73713567 21.78021606 2.72023739 24.03619153 2.70703125 26.29296875 C2.69154739 26.98899704 2.67606354 27.68502533 2.66011047 28.40214539 C2.65858873 32.8365958 3.49476597 35.37609993 6 39 C6 39.66 6 40.32 6 41 C6.66 41 7.32 41 8 41 C8 41.66 8 42.32 8 43 C12.52086656 44.12124667 16.87323157 44.18350452 21.5 44.1875 C22.24636719 44.19974609 22.99273437 44.21199219 23.76171875 44.22460938 C27.96938833 44.23578018 31.15636455 43.92944399 35 42 C34 45 34 45 32.22216797 46.16430664 C28.28113895 47.64641412 24.29225838 47.41043988 20.125 47.4375 C19.23941406 47.47037109 18.35382813 47.50324219 17.44140625 47.53710938 C13.06594874 47.57297378 9.95882424 47.46771355 6.453125 44.6796875 C3.84404284 41.82963915 2.86851617 39.73461953 2 36 C1.34 36 0.68 36 0 36 C0 24.12 0 12.24 0 0 Z " fill="#F2C572" transform="translate(109,123)"/>
<path d="M0 0 C16.5 0 33 0 50 0 C50 5.94 50 11.88 50 18 C50.66 18 51.32 18 52 18 C52.28791444 22.69545578 52.57262777 27.39109121 52.85449219 32.08691406 C52.95063687 33.68136723 53.04762657 35.27576969 53.14550781 36.87011719 C53.28677866 39.17369691 53.42491855 41.47744732 53.5625 43.78125 C53.62812134 44.83487732 53.62812134 44.83487732 53.69506836 45.90979004 C53.97206696 50.61458615 54.03696515 55.28694392 54 60 C53.67 59.01 53.34 58.02 53 57 C52.34 57 51.68 57 51 57 C50.97494385 56.18732666 50.9498877 55.37465332 50.92407227 54.53735352 C50.80850882 50.87889248 50.68560416 47.22071472 50.5625 43.5625 C50.52318359 42.28310547 50.48386719 41.00371094 50.44335938 39.68554688 C50.40146484 38.47060547 50.35957031 37.25566406 50.31640625 36.00390625 C50.26141968 34.31503296 50.26141968 34.31503296 50.20532227 32.59204102 C50.28781955 30.07146559 50.28781955 30.07146559 49 29 C48.91232888 26.92737924 48.89304127 24.85179706 48.90234375 22.77734375 C48.90484131 21.64288818 48.90733887 20.50843262 48.90991211 19.33959961 C48.91901611 17.88690674 48.92812012 16.43421387 48.9375 14.9375 C48.9684375 8.0384375 48.9684375 8.0384375 49 1 C32.83 1 16.66 1 0 1 C0 0.67 0 0.34 0 0 Z " fill="#F2C575" transform="translate(142,107)"/>
<path d="M0 0 C1.32 0 2.64 0 4 0 C4 10.89 4 21.78 4 33 C2.35 33.66 0.7 34.32 -1 35 C-0.67 23.45 -0.34 11.9 0 0 Z " fill="#E9EAE8" transform="translate(144,124)"/>
<path d="M0 0 C0.33 0 0.66 0 1 0 C1 8.91 1 17.82 1 27 C0.34 27 -0.32 27 -1 27 C-0.99476318 28.0194873 -0.98952637 29.03897461 -0.98413086 30.08935547 C-0.96605624 33.86506271 -0.95455895 37.64076612 -0.94506836 41.41650391 C-0.94003379 43.05192711 -0.93320573 44.6873458 -0.92456055 46.32275391 C-0.91245665 48.67090975 -0.906763 51.01900619 -0.90234375 53.3671875 C-0.89718246 54.10057343 -0.89202118 54.83395935 -0.88670349 55.58956909 C-0.88612829 60.77225659 -0.88612829 60.77225659 -2 63 C-2.13845858 64.35032798 -2.22503885 65.70625639 -2.28125 67.0625 C-2.31863281 67.85914063 -2.35601562 68.65578125 -2.39453125 69.4765625 C-2.42933594 70.30929688 -2.46414062 71.14203125 -2.5 72 C-2.56879611 73.64601072 -2.64152756 75.29186307 -2.71875 76.9375 C-2.74904297 77.66839844 -2.77933594 78.39929688 -2.81054688 79.15234375 C-3 81 -3 81 -4 83 C-4.66 83 -5.32 83 -6 83 C-5.8453125 82.08347656 -5.690625 81.16695313 -5.53125 80.22265625 C-4.63896027 73.9781991 -4.6103879 67.65714718 -4.39453125 61.36132812 C-4.35714844 60.37455078 -4.31976563 59.38777344 -4.28125 58.37109375 C-4.25095703 57.48349365 -4.22066406 56.59589355 -4.18945312 55.68139648 C-4 53 -4 53 -3.5 50.09082031 C-2.96071056 46.75712681 -2.80655864 43.55104243 -2.71875 40.17578125 C-2.68136719 38.90025391 -2.64398438 37.62472656 -2.60546875 36.31054688 C-2.55250065 34.30266342 -2.49954294 32.29477945 -2.44775391 30.28686523 C-2.3959568 28.33306886 -2.33868084 26.37942014 -2.28125 24.42578125 C-2.25095703 23.26473877 -2.22066406 22.10369629 -2.18945312 20.9074707 C-2 18 -2 18 -1 15 C-0.77281504 12.43365139 -0.58391816 9.88321893 -0.4375 7.3125 C-0.37272461 6.2596582 -0.37272461 6.2596582 -0.30664062 5.18554688 C-0.2008264 3.45724794 -0.09993419 1.7286489 0 0 Z " fill="#F38B35" transform="translate(93,108)"/>
<path d="M0 0 C4.95 0 9.9 0 15 0 C15 0.66 15 1.32 15 2 C13.6078125 2.2165625 13.6078125 2.2165625 12.1875 2.4375 C8.9703807 3.61614049 8.9703807 3.61614049 8.11376953 5.76318359 C6.36190748 11.52295795 4.97086302 17.30732441 3.6875 23.1875 C1.7254387 31.77436783 -0.48429818 40.35045047 -5 48 C-6.485 48.495 -6.485 48.495 -8 49 C-7.72929687 48.34515625 -7.45859375 47.6903125 -7.1796875 47.015625 C-3.32239395 37.15525872 -0.08237164 27.04864186 2.375 16.75 C2.54241699 16.0600293 2.70983398 15.37005859 2.88232422 14.65917969 C3.78516966 10.70376425 4.16361966 7.0527331 4 3 C2.68 2.34 1.36 1.68 0 1 C0 0.67 0 0.34 0 0 Z " fill="#323232" transform="translate(297,128)"/>
<path d="M0 0 C0.66 0 1.32 0 2 0 C1.86722656 0.72445312 1.73445313 1.44890625 1.59765625 2.1953125 C1.42105469 3.16210938 1.24445313 4.12890625 1.0625 5.125 C0.88847656 6.07632813 0.71445313 7.02765625 0.53515625 8.0078125 C-0.00019283 11.00107815 -0.50010169 14.00061014 -1 17 C-14.86 17 -28.72 17 -43 17 C-43 16.34 -43 15.68 -43 15 C-41.87464844 15.01160156 -40.74929687 15.02320313 -39.58984375 15.03515625 C-21.79062475 16.04162578 -21.79062475 16.04162578 -5 12 C-3.77227173 9.76740335 -3.77227173 9.76740335 -3 7 C-2.47055112 5.7240282 -1.92844467 4.45324845 -1.375 3.1875 C-0.92125 2.135625 -0.4675 1.08375 0 0 Z " fill="#212121" transform="translate(249,168)"/>
<path d="M0 0 C7.59 0 15.18 0 23 0 C23 8.91 23 17.82 23 27 C22.67 27 22.34 27 22 27 C22 18.42 22 9.84 22 1 C15.07 1 8.14 1 1 1 C1 14.53 1 28.06 1 42 C-0.485 42.495 -0.485 42.495 -2 43 C-2 37.39 -2 31.78 -2 26 C-1.34 26 -0.68 26 0 26 C0 17.42 0 8.84 0 0 Z " fill="#EE716F" transform="translate(16,62)"/>
<path d="M0 0 C0.66 0 1.32 0 2 0 C-1.35446513 9.38572566 -8.91524166 19.45762083 -18 24 C-21.5 24.1875 -21.5 24.1875 -25 24 C-27 22 -27 22 -27.3125 19.5625 C-27 17 -27 17 -25.8125 15.125 C-24 14 -24 14 -21.3125 14.3125 C-20.1678125 14.6528125 -20.1678125 14.6528125 -19 15 C-19.33 16.98 -19.66 18.96 -20 21 C-13.05833381 18.62000016 -9.22668415 14.37349999 -5.25 8.375 C-4.85167969 7.78976563 -4.45335937 7.20453125 -4.04296875 6.6015625 C-2.5841197 4.44543306 -1.16551706 2.33103411 0 0 Z " fill="#232323" transform="translate(325,162)"/>
<path d="M0 0 C1 1 1 1 1.125 4.5 C1 8 1 8 0 9 C-1.99958364 9.04080783 -4.00045254 9.04254356 -6 9 C-5.67 6.69 -5.34 4.38 -5 2 C-15.84693065 7.96581186 -21.02571359 19.21201634 -26 30 C-26.66 29.34 -27.32 28.68 -28 28 C-12.84737252 -1.79863215 -12.84737252 -1.79863215 0 0 Z " fill="#333333" transform="translate(475,127)"/>
<path d="M0 0 C0.66 0 1.32 0 2 0 C0.60695059 7.40774509 -1.11899623 14.70170537 -3 22 C-3.66 22 -4.32 22 -5 22 C-5 19.03 -5 16.06 -5 13 C-8.63 12.67 -12.26 12.34 -16 12 C-15.67 11.01 -15.34 10.02 -15 9 C-14.09507812 9.06960937 -14.09507812 9.06960937 -13.171875 9.140625 C-8.05898519 9.44673272 -8.05898519 9.44673272 -3.5625 7.3125 C-1.95865764 4.9388133 -0.90460915 2.71382745 0 0 Z " fill="#1C1C1C" transform="translate(409,146)"/>
<path d="M0 0 C0.99 0.495 0.99 0.495 2 1 C1.99476318 1.7520874 1.98952637 2.5041748 1.98413086 3.27905273 C1.96342773 6.66519342 1.95036123 10.05132084 1.9375 13.4375 C1.92912109 14.62150391 1.92074219 15.80550781 1.91210938 17.02539062 C1.90888672 18.15009766 1.90566406 19.27480469 1.90234375 20.43359375 C1.89710693 21.47572021 1.89187012 22.51784668 1.88647461 23.59155273 C1.72694444 25.95128747 1.72694444 25.95128747 3 27 C4.34015221 27.15582303 5.68758903 27.25044142 7.03515625 27.31640625 C7.76355713 27.35451416 8.49195801 27.39262207 9.24243164 27.43188477 C10.63836548 27.49653931 10.63836548 27.49653931 12.0625 27.5625 C15.011875 27.706875 17.96125 27.85125 21 28 C20.505 14.14 20.505 14.14 20 0 C20.66 0 21.32 0 22 0 C22 9.57 22 19.14 22 29 C16.8334375 29.0309375 16.8334375 29.0309375 11.5625 29.0625 C10.47525635 29.071604 9.3880127 29.08070801 8.26782227 29.09008789 C7.41760498 29.09258545 6.5673877 29.09508301 5.69140625 29.09765625 C4.37958374 29.10551147 4.37958374 29.10551147 3.04125977 29.11352539 C1 29 1 29 0 28 C-0.08767112 25.92737924 -0.10695873 23.85179706 -0.09765625 21.77734375 C-0.09443359 20.51728516 -0.09121094 19.25722656 -0.08789062 17.95898438 C-0.07953403 16.61848891 -0.07106907 15.27799412 -0.0625 13.9375 C-0.0574866 12.59310058 -0.05292342 11.2486994 -0.04882812 9.90429688 C-0.03699488 6.60282059 -0.02050971 3.30143197 0 0 Z " fill="#EE5F3B" transform="translate(31,93)"/>
<path d="M0 0 C0.99 0.33 1.98 0.66 3 1 C4.1687481 4.5062443 4.12514267 7.6477866 4.09765625 11.29296875 C4.0962413 11.99899734 4.09482635 12.70502594 4.09336853 13.43244934 C4.08777764 15.68417626 4.07522688 17.93580321 4.0625 20.1875 C4.05748382 21.71549335 4.05292112 23.24348827 4.04882812 24.77148438 C4.0378112 28.51436135 4.02055287 32.25716373 4 36 C3.67 36 3.34 36 3 36 C2.01 24.12 1.02 12.24 0 0 Z " fill="#F6D8D8" transform="translate(139,61)"/>
<path d="M0 0 C0.33 0 0.66 0 1 0 C2.32340051 15.03080292 3.32730287 29.90770084 3 45 C2.67 45 2.34 45 2 45 C1.93941406 44.09636719 1.87882813 43.19273438 1.81640625 42.26171875 C1.73261719 41.08222656 1.64882812 39.90273437 1.5625 38.6875 C1.48128906 37.51574219 1.40007812 36.34398437 1.31640625 35.13671875 C1.1132629 31.97409042 1.1132629 31.97409042 0 29 C-0.08358958 26.78910055 -0.10731764 24.57573922 -0.09765625 22.36328125 C-0.09443359 21.06455078 -0.09121094 19.76582031 -0.08789062 18.42773438 C-0.07953531 17.05598892 -0.07107037 15.68424413 -0.0625 14.3125 C-0.05748335 12.92903805 -0.05292073 11.54557437 -0.04882812 10.16210938 C-0.03702529 6.77469605 -0.02056019 3.38736967 0 0 Z " fill="#E17D7A" transform="translate(139,62)"/>
<path d="M0 0 C0.66 0 1.32 0 2 0 C2.12618955 7.31899361 2.12618955 7.31899361 1.52734375 10.55078125 C0.61005717 16.55051499 0.59968147 22.6182047 0.39453125 28.67773438 C0.33845703 30.16950195 0.33845703 30.16950195 0.28125 31.69140625 C0.25095703 32.59060791 0.22066406 33.48980957 0.18945312 34.41625977 C-0.00106731 37.01455585 -0.43467869 39.45920116 -1 42 C-1.33 42 -1.66 42 -2 42 C-1.88193803 36.33985838 -1.75770328 30.67989917 -1.62768555 25.02001953 C-1.58430999 23.09362496 -1.54263686 21.16719129 -1.50268555 19.24072266 C-1.44504638 16.47546592 -1.38133384 13.7104065 -1.31640625 10.9453125 C-1.29969376 10.0806839 -1.28298126 9.2160553 -1.26576233 8.32522583 C-1.11387171 2.22774341 -1.11387171 2.22774341 0 0 Z " fill="#ED5B3B" transform="translate(89,147)"/>
<path d="M0 0 C2.38319736 2.38319736 2.272547 2.99273181 2.37890625 6.24609375 C2.41306641 7.08333984 2.44722656 7.92058594 2.48242188 8.78320312 C2.50884766 9.65912109 2.53527344 10.53503906 2.5625 11.4375 C2.6225266 13.16549986 2.68617875 14.89337858 2.75390625 16.62109375 C2.77783447 17.3886499 2.8017627 18.15620605 2.82641602 18.94702148 C2.93581696 21.19940972 2.93581696 21.19940972 4 24 C4.07051114 26.73865287 4.09357765 29.45027588 4.0625 32.1875 C4.05798828 32.93708984 4.05347656 33.68667969 4.04882812 34.45898438 C4.03706354 36.30602383 4.01912865 38.15302213 4 40 C3.67 40 3.34 40 3 40 C0.71624118 31.69120265 0.56238322 23.48783542 0.375 14.9375 C0.33673804 13.48500473 0.29768181 12.03253016 0.2578125 10.58007812 C0.16271895 7.05357688 0.07836886 3.52691721 0 0 Z " fill="#F5D8A5" transform="translate(195,152)"/>
<path d="M0 0 C0.33 0 0.66 0 1 0 C1 8.91 1 17.82 1 27 C0.34 27 -0.32 27 -1 27 C-1 30.3 -1 33.6 -1 37 C-1.33 37 -1.66 37 -2 37 C-2.02903577 33.89585298 -2.0468107 30.79174091 -2.0625 27.6875 C-2.07087891 26.80642578 -2.07925781 25.92535156 -2.08789062 25.01757812 C-2.09111328 24.17001953 -2.09433594 23.32246094 -2.09765625 22.44921875 C-2.10289307 21.66893311 -2.10812988 20.88864746 -2.11352539 20.0847168 C-2 18 -2 18 -1 15 C-0.77281504 12.43365139 -0.58391816 9.88321893 -0.4375 7.3125 C-0.39431641 6.61060547 -0.35113281 5.90871094 -0.30664062 5.18554688 C-0.2008264 3.45724794 -0.09993419 1.7286489 0 0 Z " fill="#F07637" transform="translate(93,108)"/>
<path d="M0 0 C0.33 0 0.66 0 1 0 C1.06058594 1.10859375 1.12117187 2.2171875 1.18359375 3.359375 C1.26802951 4.8229282 1.35267599 6.28646925 1.4375 7.75 C1.47681641 8.47960937 1.51613281 9.20921875 1.55664062 9.9609375 C1.76171746 13.97224642 1.76171746 13.97224642 2.51367188 17.90429688 C3.10716736 20.46180954 3.11223963 22.79686634 3.09765625 25.421875 C3.09443359 26.44667969 3.09121094 27.47148438 3.08789062 28.52734375 C3.07951172 29.59082031 3.07113281 30.65429688 3.0625 31.75 C3.05798828 32.82894531 3.05347656 33.90789062 3.04882812 35.01953125 C3.03705727 37.67974383 3.02061399 40.33984365 3 43 C2.67 43 2.34 43 2 43 C1.90912109 41.35451172 1.90912109 41.35451172 1.81640625 39.67578125 C1.73195502 38.22134346 1.64730934 36.76691695 1.5625 35.3125 C1.52318359 34.59126953 1.48386719 33.87003906 1.44335938 33.12695312 C1.40146484 32.42119141 1.35957031 31.71542969 1.31640625 30.98828125 C1.26141968 30.02208862 1.26141968 30.02208862 1.20532227 29.03637695 C1.02955474 26.9237609 1.02955474 26.9237609 0.48632812 24.58203125 C-0.020918 21.88894137 -0.11366859 19.43732921 -0.09765625 16.69921875 C-0.09443359 15.72275391 -0.09121094 14.74628906 -0.08789062 13.74023438 C-0.07951172 12.73283203 -0.07113281 11.72542969 -0.0625 10.6875 C-0.05798828 9.66076172 -0.05347656 8.63402344 -0.04882812 7.57617188 C-0.03708184 5.05072118 -0.02065565 2.52539095 0 0 Z " fill="#BE2F2B" transform="translate(130,63)"/>
<path d="M0 0 C0.33 0 0.66 0 1 0 C1.06058594 0.85464844 1.12117188 1.70929688 1.18359375 2.58984375 C1.26738281 3.69457031 1.35117188 4.79929687 1.4375 5.9375 C1.51871094 7.03964844 1.59992188 8.14179687 1.68359375 9.27734375 C1.70418084 11.91109903 1.70418084 11.91109903 3 13 C3.08783542 15.21855264 3.10694609 17.43988496 3.09765625 19.66015625 C3.09553383 20.65685585 3.09553383 20.65685585 3.09336853 21.6736908 C3.08775518 23.80333899 3.07520054 25.93288339 3.0625 28.0625 C3.05748671 29.50325369 3.05292351 30.94400903 3.04882812 32.38476562 C3.03778145 35.92321102 3.02050792 39.46159539 3 43 C2.67 43 2.34 43 2 43 C1.97494385 42.35450195 1.9498877 41.70900391 1.92407227 41.04394531 C1.80785567 38.11244106 1.68524558 35.18123783 1.5625 32.25 C1.52318359 31.23421875 1.48386719 30.2184375 1.44335938 29.171875 C1.40146484 28.1921875 1.35957031 27.2125 1.31640625 26.203125 C1.27974854 25.30239258 1.24309082 24.40166016 1.20532227 23.47363281 C1.01618115 21.19494346 0.55604378 19.20854337 0 17 C-0.07708723 15.63199181 -0.10803609 14.26076408 -0.09765625 12.890625 C-0.09443359 12.13652344 -0.09121094 11.38242188 -0.08789062 10.60546875 C-0.07951172 9.82816406 -0.07113281 9.05085938 -0.0625 8.25 C-0.05798828 7.45722656 -0.05347656 6.66445312 -0.04882812 5.84765625 C-0.03708565 3.89840492 -0.01915146 1.94919262 0 0 Z " fill="#BD2E2B" transform="translate(123,63)"/>
<path d="M0 0 C1.66611905 -0.042721 3.33382885 -0.04063832 5 0 C6 1 6 1 6.125 4.5 C6 8 6 8 5 9 C3.00041636 9.04080783 0.99954746 9.04254356 -1 9 C-1.08886184 5.80097361 -0.91058531 3.07322544 0 0 Z " fill="#080808" transform="translate(470,127)"/>
<path d="M0 0 C4.95 0 9.9 0 15 0 C15 0.66 15 1.32 15 2 C14.071875 2.268125 13.14375 2.53625 12.1875 2.8125 C9.23759634 3.91148371 7.94384814 4.62418561 6 7 C5.7525 6.38125 5.505 5.7625 5.25 5.125 C3.79371361 2.64931313 2.62187494 2.04874998 0 1 C0 0.67 0 0.34 0 0 Z " fill="#0F0F0F" transform="translate(297,128)"/>
<path d="M0 0 C0.33 0 0.66 0 1 0 C3.38222795 9.65653116 3.19538118 19.13325025 3 29 C2.67 29 2.34 29 2 29 C2 25.04 2 21.08 2 17 C1.34 17 0.68 17 0 17 C0 11.39 0 5.78 0 0 Z " fill="#F8E2BB" transform="translate(192,108)"/>
<path d="M0 0 C0.33 0 0.66 0 1 0 C1.33970765 2.49927769 1.67188032 4.99919595 2 7.5 C2.09539062 8.19609375 2.19078125 8.8921875 2.2890625 9.609375 C2.9161622 14.44700129 3.08789528 19.12181196 3 24 C2.67 23.01 2.34 22.02 2 21 C1.34 21 0.68 21 0 21 C0 14.07 0 7.14 0 0 Z " fill="#EEB652" transform="translate(193,143)"/>
<path d="M0 0 C2.97 0 5.94 0 9 0 C9.33 0.99 9.66 1.98 10 3 C8.02 3.99 8.02 3.99 6 5 C6.33 3.68 6.66 2.36 7 1 C3.56661484 2.20632452 1.49635415 3.38477184 -1 6 C-1.66 6 -2.32 6 -3 6 C-2 4 -1 2 0 0 Z " fill="#E4E6E7" transform="translate(67,20)"/>
<path d="M0 0 C0.66 0.33 1.32 0.66 2 1 C1.401875 1.845625 0.80375 2.69125 0.1875 3.5625 C-2.0400402 6.88399232 -3.51681821 10.29204553 -5 14 C-6 12 -6 12 -5.546875 9.94140625 C-5.15242188 8.76384766 -5.15242188 8.76384766 -4.75 7.5625 C-4.49734375 6.78003906 -4.2446875 5.99757812 -3.984375 5.19140625 C-2.95849862 2.90761001 -1.87120644 1.63467754 0 0 Z " fill="#1C1C1C" transform="translate(430,127)"/>
<path d="M0 0 C0.33 0 0.66 0 1 0 C1 3.63 1 7.26 1 11 C-0.32 11 -1.64 11 -3 11 C-3 10.34 -3 9.68 -3 9 C-2.34 9 -1.68 9 -1 9 C-1.020625 7.88625 -1.04125 6.7725 -1.0625 5.625 C-1 2 -1 2 0 0 Z " fill="#DDCDC9" transform="translate(44,77)"/>
<path d="M0 0 C1.485 0.99 1.485 0.99 3 2 C3 2.66 3 3.32 3 4 C3.66 4 4.32 4 5 4 C5 4.99 5 5.98 5 7 C5.99 7.33 6.98 7.66 8 8 C5.6875 7.8125 5.6875 7.8125 3 7 C0 2.96551724 0 2.96551724 0 0 Z " fill="#F2C470" transform="translate(112,160)"/>
<path d="M0 0 C0.66 0 1.32 0 2 0 C1.50769231 5.53846154 1.50769231 5.53846154 -1.0625 7.875 C-2.0215625 8.431875 -2.0215625 8.431875 -3 9 C-2.01 6.03 -1.02 3.06 0 0 Z " fill="#212121" transform="translate(249,168)"/>
</svg>
